<svg width="44" height="45" viewBox="0 0 44 45" fill="none" xmlns="http://www.w3.org/2000/svg">
<g clip-path="url(#clip0_7_238)">
<path d="M16.5 35.625C7.33334 38.4375 7.33334 30.9375 3.66667 30M29.3333 41.25V33.9938C29.4021 33.0997 29.284 32.2009 28.9869 31.3571C28.6897 30.5133 28.2204 29.7439 27.61 29.1C33.3667 28.4438 39.4167 26.2125 39.4167 15.975C39.4162 13.3572 38.4316 10.8398 36.6667 8.94375C37.5024 6.65345 37.4433 4.12191 36.5017 1.87501C36.5017 1.87501 34.3383 1.21876 29.3333 4.65001C25.1314 3.4853 20.702 3.4853 16.5 4.65001C11.495 1.21876 9.33167 1.87501 9.33167 1.87501C8.39003 4.12191 8.33094 6.65345 9.16667 8.94375C7.38857 10.8538 6.40296 13.394 6.41667 16.0313C6.41667 26.1938 12.4667 28.425 18.2233 29.1563C17.6202 29.7937 17.155 30.5539 16.8581 31.3874C16.5612 32.2208 16.4392 33.1089 16.5 33.9938V41.25" stroke="white" stroke-width="4" stroke-linecap="round" stroke-linejoin="round"/>
</g>
<defs>
<clipPath id="clip0_7_238">
<rect width="44" height="45" fill="white"/>
</clipPath>
</defs>
</svg>
