<svg width="48" height="47" viewBox="0 0 48 47" fill="none" xmlns="http://www.w3.org/2000/svg">
<path d="M8 39.1667C6.9 39.1667 5.95833 38.7832 5.175 38.0161C4.39167 37.2491 4 36.3271 4 35.25V11.75C4 10.6729 4.39167 9.75086 5.175 8.98385C5.95833 8.21684 6.9 7.83333 8 7.83333H40C41.1 7.83333 42.0417 8.21684 42.825 8.98385C43.6083 9.75086 44 10.6729 44 11.75V35.25C44 36.3271 43.6083 37.2491 42.825 38.0161C42.0417 38.7832 41.1 39.1667 40 39.1667H8ZM24 25.4583L8 15.6667V35.25H40V15.6667L24 25.4583ZM24 21.5417L40 11.75H8L24 21.5417ZM8 15.6667V11.75V35.25V15.6667Z" fill="white"/>
</svg>
