<svg width="48" height="47" viewBox="0 0 48 47" fill="none" xmlns="http://www.w3.org/2000/svg">
<path d="M32 15.6667C35.1826 15.6667 38.2348 16.9046 40.4853 19.1082C42.7357 21.3117 44 24.3004 44 27.4167V41.125H36V27.4167C36 26.3779 35.5786 25.3817 34.8284 24.6472C34.0783 23.9127 33.0609 23.5 32 23.5C30.9391 23.5 29.9217 23.9127 29.1716 24.6472C28.4214 25.3817 28 26.3779 28 27.4167V41.125H20V27.4167C20 24.3004 21.2643 21.3117 23.5147 19.1082C25.7652 16.9046 28.8174 15.6667 32 15.6667Z" stroke="white" stroke-width="4" stroke-linecap="round" stroke-linejoin="round"/>
<path d="M12 17.625H4V41.125H12V17.625Z" stroke="white" stroke-width="4" stroke-linecap="round" stroke-linejoin="round"/>
<path d="M8 11.75C10.2091 11.75 12 9.99645 12 7.83334C12 5.67022 10.2091 3.91667 8 3.91667C5.79086 3.91667 4 5.67022 4 7.83334C4 9.99645 5.79086 11.75 8 11.75Z" stroke="white" stroke-width="4" stroke-linecap="round" stroke-linejoin="round"/>
</svg>
